<?xml version="1.0" encoding="UTF-8" standalone="no"?>
<svg
   xmlns:dc="http://purl.org/dc/elements/1.1/"
   xmlns:cc="http://creativecommons.org/ns#"
   xmlns:rdf="http://www.w3.org/1999/02/22-rdf-syntax-ns#"
   xmlns:svg="http://www.w3.org/2000/svg"
   xmlns="http://www.w3.org/2000/svg"
   xmlns:sodipodi="http://sodipodi.sourceforge.net/DTD/sodipodi-0.dtd"
   xmlns:inkscape="http://www.inkscape.org/namespaces/inkscape"
   sodipodi:docname="Roszak-group.svg"
   inkscape:version="1.0 (4035a4fb49, 2020-05-01)"
   id="svg8"
   version="1.1"
   viewBox="0 0 400 225"
   height="225mm"
   width="400mm">
  <defs
     id="defs2">
    <clipPath
       id="clipPath26"
       clipPathUnits="userSpaceOnUse">
      <rect
         y="167.00203"
         x="-308.21661"
         height="225.94197"
         width="400.70065"
         id="rect28"
         style="fill:#000000;fill-rule:evenodd;stroke-width:1.14972" />
    </clipPath>
  </defs>
  <sodipodi:namedview
     inkscape:window-maximized="1"
     inkscape:window-y="-8"
     inkscape:window-x="1432"
     inkscape:window-height="1017"
     inkscape:window-width="1920"
     showgrid="false"
     inkscape:document-rotation="0"
     inkscape:current-layer="layer1"
     inkscape:document-units="mm"
     inkscape:cy="247.10992"
     inkscape:cx="-221.75391"
     inkscape:zoom="0.35"
     inkscape:pageshadow="2"
     inkscape:pageopacity="0.0"
     borderopacity="1.0"
     bordercolor="#666666"
     pagecolor="#ffffff"
     id="base"
     inkscape:snap-global="false" />
  <metadata
     id="metadata5">
    <rdf:RDF>
      <cc:Work
         rdf:about="">
        <dc:format>image/svg+xml</dc:format>
        <dc:type
           rdf:resource="http://purl.org/dc/dcmitype/StillImage" />
        <dc:title></dc:title>
      </cc:Work>
    </rdf:RDF>
  </metadata>
  <g
     id="layer1"
     inkscape:groupmode="layer"
     inkscape:label="Warstwa 1">
    <rect
       y="0.15314162"
       x="-0.037502978"
       height="225.49431"
       width="400.22333"
       id="rect2618"
       style="fill:#ffffff;fill-rule:evenodd;stroke-width:0.870898" />
    <g
       transform="matrix(0.09208885,0,0,-0.09208885,68.205106,232.7389)"
       id="g1373">
      <path
         id="path1375"
         style="fill:none;stroke:#000000;stroke-width:2.5;stroke-linecap:butt;stroke-linejoin:miter;stroke-miterlimit:3.8;stroke-dasharray:none;stroke-opacity:1"
         d="m 252,420 h 31.5 m 2512,0 H 2764" />
      <path
         id="path1377"
         style="fill:none;stroke:#000000;stroke-width:2.5;stroke-linecap:butt;stroke-linejoin:miter;stroke-miterlimit:3.8;stroke-dasharray:none;stroke-opacity:1"
         d="m 252,812 h 31.5 m 2512,0 H 2764" />
      <path
         id="path1379"
         style="fill:none;stroke:#000000;stroke-width:2.5;stroke-linecap:butt;stroke-linejoin:miter;stroke-miterlimit:3.8;stroke-dasharray:none;stroke-opacity:1"
         d="m 252,1204 h 31.5 m 2512,0 H 2764" />
      <path
         id="path1381"
         style="fill:none;stroke:#000000;stroke-width:2.5;stroke-linecap:butt;stroke-linejoin:miter;stroke-miterlimit:3.8;stroke-dasharray:none;stroke-opacity:1"
         d="m 252,1595.5 h 31.5 m 2512,0 H 2764" />
      <path
         id="path1383"
         style="fill:none;stroke:#000000;stroke-width:2.5;stroke-linecap:butt;stroke-linejoin:miter;stroke-miterlimit:3.8;stroke-dasharray:none;stroke-opacity:1"
         d="m 252,1987.5 h 31.5 m 2512,0 H 2764" />
      <path
         id="path1385"
         style="fill:none;stroke:#000000;stroke-width:2.5;stroke-linecap:butt;stroke-linejoin:miter;stroke-miterlimit:3.8;stroke-dasharray:none;stroke-opacity:1"
         d="m 252,2379.5 h 31.5 m 2512,0 H 2764" />
      <path
         id="path1387"
         style="fill:none;stroke:#000000;stroke-width:2.5;stroke-linecap:butt;stroke-linejoin:miter;stroke-miterlimit:3.8;stroke-dasharray:none;stroke-opacity:1"
         d="m 761.5,420 v 31.5 m 0,1928 V 2348" />
      <path
         id="path1389"
         style="fill:none;stroke:#000000;stroke-width:2.5;stroke-linecap:butt;stroke-linejoin:miter;stroke-miterlimit:3.8;stroke-dasharray:none;stroke-opacity:1"
         d="m 1271.5,420 v 31.5 m 0,1928 V 2348" />
      <path
         id="path1391"
         style="fill:none;stroke:#000000;stroke-width:2.5;stroke-linecap:butt;stroke-linejoin:miter;stroke-miterlimit:3.8;stroke-dasharray:none;stroke-opacity:1"
         d="m 1781,420 v 31.5 m 0,1928 V 2348" />
      <path
         id="path1393"
         style="fill:none;stroke:#000000;stroke-width:2.5;stroke-linecap:butt;stroke-linejoin:miter;stroke-miterlimit:3.8;stroke-dasharray:none;stroke-opacity:1"
         d="m 2291,420 v 31.5 m 0,1928 V 2348" />
      <path
         id="path1395"
         style="fill:none;stroke:#000000;stroke-width:1.25;stroke-linecap:butt;stroke-linejoin:miter;stroke-miterlimit:3.8;stroke-dasharray:5, 10;stroke-dashoffset:0;stroke-opacity:1"
         d="M 252,420 H 2795.5" />
      <path
         id="path1397"
         style="fill:none;stroke:#000000;stroke-width:5;stroke-linecap:butt;stroke-linejoin:miter;stroke-miterlimit:3.8;stroke-dasharray:none;stroke-opacity:1"
         d="M 252,2379.5 V 420 h 2543.5 v 1959.5 z" />
      <g
         transform="scale(10)"
         id="g1399">
        <text
           id="text1403"
           style="font-variant:normal;font-weight:normal;font-size:14px;font-family:'Times New Roman';-inkscape-font-specification:Times-Roman;writing-mode:lr-tb;fill:#000000;fill-opacity:1;fill-rule:nonzero;stroke:none"
           transform="matrix(0,1,1,0,15.8648,135.673)"><tspan
             id="tspan1401"
             y="0"
             x="0">E</tspan></text>
        <text
           id="text1407"
           style="font-variant:normal;font-weight:normal;font-size:14px;font-family:'Times New Roman';-inkscape-font-specification:Times-Roman;writing-mode:lr-tb;fill:#000000;fill-opacity:1;fill-rule:nonzero;stroke:none"
           transform="matrix(1,0,0,-1,150.404,16.3352)"><tspan
             id="tspan1405"
             y="0"
             x="0">t</tspan></text>
      </g>
      <path
         id="path1409"
         style="fill:none;stroke:#9400d4;stroke-width:10;stroke-linecap:butt;stroke-linejoin:miter;stroke-miterlimit:3.8;stroke-dasharray:none;stroke-opacity:1"
         d="m 252,2379.5 5,-1 5,-4 5.5,-6 5,-9 5,-11 5,-13.5 5,-16 5.5,-18 5,-20 5,-22.5 5,-25 5,-26.5 5.5,-28.5 5,-30.5 5,-32 5,-33.5 5,-35.5 5,-36.5 5.5,-38 5,-39 5,-40.5 5,-41 5,-42 5.5,-42.5 5,-43.5 5,-43.5 5,-44 5,-44.5 5.5,-44.5 5,-44 5,-44.5 5,-44 5,-43.5 5.5,-43.5 5,-43 5,-42 5,-41.5 5,-40.5 5.5,-40 5,-38.5 5,-38 5,-37 5,-36 5.5,-34.5 5,-33.5 5,-32 5,-31 5,-30 5.5,-28.5 5,-27 5,-26 5,-25 5,-23 5,-22 5.5,-21 5,-19.5 5,-18.5 5,-17 5,-16.5 5.5,-14.5 5,-14 5,-13 5,-11.5 5,-11 5.5,-10 5,-9 5,-8 5,-7.5 5,-6.5 5.5,-6 5,-5.5 5,-4.5 5,-4.5 5,-3.5 5.5,-3 5,-3 5,-2 5,-2 5,-2 5.5,-1.5 5,-1 5,-1 5,-0.5 5,-0.5 5.5,-0.5 5,-0.5 h 2 m 49,0 h 5 5 5 5 5.5 5 5 5 5 5.5 5 5 m 78.5,0 h 3 5 5 5.5 l 5,0.5 h 5 5 5 5.5 5 5 5 5 5.5 5 5 5 5 L 976,420 h 5 5 m 146.5,0 h 1.5 l 5,0.5 5,0.5 h 5 l 5,0.5 5.5,0.5 5,0.5 5,0.5 5,0.5 5,0.5 5.5,0.5 h 5 l 5,0.5 5,0.5 5,0.5 h 5.5 l 5,0.5 5,0.5 h 5 5 l 5.5,0.5 h 5 5 5 5 5 5.5 l 5,-0.5 h 5 5 l 5,-0.5 5.5,-0.5 h 5 l 5,-0.5 5,-0.5 5,-0.5 5.5,-0.5 5,-0.5 5,-0.5 5,-0.5 5,-1 5.5,-0.5 5,-0.5 5,-0.5 m 220,0 h 4.5 l 5,0.5 h 5 5 l 5,0.5 h 5.5 5 5 5 5 5 5.5 5 5 5 5 l 5.5,-0.5 h 5 5 5 5 5.5 l 5,-0.5 h 5 5 5 5.5 5 5 5 5 5.5 5 5 l 5,0.5 h 5 5.5 5 5 l 5,0.5 h 5 5 5.5 l 5,0.5 h 5 5 5 l 5.5,0.5 h 5 5 5 5 5.5 5 5 5 5 l 5.5,-0.5 h 5 5 l 5,-0.5 h 5 l 5.5,-0.5 h 5 l 5,-0.5 m 236,0 3.5,0.5 5,0.5 5,0.5 5.5,0.5 5,0.5 5,0.5 5,0.5 5,0.5 5.5,0.5 h 5 l 5,0.5 5,0.5 h 5 l 5.5,0.5 h 5" />
      <path
         id="path1411"
         style="fill:none;stroke:#9400d4;stroke-width:10;stroke-linecap:butt;stroke-linejoin:miter;stroke-miterlimit:3.8;stroke-dasharray:none;stroke-opacity:1"
         d="m 2214.5,426 h 5 l 5,0.5 h 30.5 l 5.5,-0.5 h 5 5 l 5,-0.5 h 5 l 5.5,-0.5 h 5 l 5,-0.5 h 5 l 5,-0.5 h 5.5 l 5,-0.5 h 5 l 5,-0.5 h 5 l 5,-0.5 h 5.5 l 5,-0.5 h 5 l 5,-0.5 h 5 l 5.5,-0.5 h 5 5 l 5,-0.5 h 5 5.5 5 5 l 5,-0.5 h 5 5.5 5 5 5 5 5.5 5 5 m 244.5,0 5,0.5 h 5.5 l 5,0.5 h 5 l 5,0.5 5,0.5 h 5.5 l 5,0.5 h 5 l 5,0.5 h 5 l 5.5,0.5 h 5 l 5,0.5 h 5 5 l 5.5,0.5 h 5 5" />
      <path
         id="path1413"
         style="fill:none;stroke:#9400d4;stroke-width:10;stroke-linecap:butt;stroke-linejoin:miter;stroke-miterlimit:3.8;stroke-dasharray:none;stroke-opacity:1"
         d="m 252,420 h 5 l 5,0.5 5.5,0.5 5,0.5 5,1 5,1 5,1.5 5.5,1.5 5,1.5 5,2 5,2 5,2 5.5,2.5 5,2.5 5,3 5,3 5,3 5,3.5 5.5,3.5 5,3.5 5,3.5 5,4 5,4 5.5,4.5 5,4.5 5,4.5 5,4.5 5,4.5 5.5,5 5,5 5,5 5,5.5 5,5.5 5.5,5 5,5.5 5,6 5,5.5 5,5.5 5.5,6 5,6 5,6 5,6 5,6 5.5,6 5,6 5,6 5,6.5 5,6 5.5,6 5,6.5 5,6 5,6.5 5,6 5,6 5.5,6.5 5,6 5,6 5,6 5,6.5 5.5,6 5,6 5,5.5 5,6 5,6 5.5,5.5 5,6 5,5.5 5,5.5 5,5.5 5.5,5.5 5,5 5,5.5 5,5 5,5 5.5,5 5,5 5,5 5,4.5 5,4.5 5.5,4.5 5,4.5 5,4 5,4 5,4.5 5.5,3.5 5,4 5,3.5 5,3.5 5,3.5 5,3.5 5.5,3 5,3 5,3 5,3 5,2.5 5.5,3 5,2.5 5,2 5,2.5 5,2 5.5,2 5,2 5,1.5 5,1.5 5,1.5 5.5,1.5 5,1 5,1.5 5,1 5,1 5.5,0.5 5,0.5 5,1 h 5 l 5,0.5 5.5,0.5 h 5 5 5 l 5,-0.5 h 5.5 l 5,-0.5 5,-0.5 5,-0.5 5,-1 5,-0.5 5.5,-1 5,-1 5,-1 5,-1 5,-1 5.5,-1.5 5,-1 5,-1.5 5,-1.5 5,-1.5 5.5,-1.5 5,-1.5 5,-2 5,-1.5 5,-2 5.5,-1.5 5,-2 5,-2 5,-2 5,-2 5.5,-2 5,-2 5,-2 5,-2 5,-2 5.5,-2.5 5,-2 5,-2 5,-2 5,-2.5 5.5,-2 5,-2 5,-2.5 5,-2 5,-2 5,-2.5 5.5,-2 5,-2 5,-2 5,-2 5,-2 5.5,-2 5,-2 5,-2 5,-2 5,-2 5.5,-2 5,-1.5 5,-2 5,-1.5 5,-1.5 5.5,-2 5,-1.5 5,-1.5 5,-1 5,-1.5 5.5,-1.5 5,-1 5,-1.5 5,-1 5,-1 5.5,-1 5,-1 5,-1 5,-1 5,-0.5 5.5,-1 5,-0.5 5,-0.5 5,-0.5 5,-0.5 h 5 l 5.5,-0.5 h 5 l 5,-0.5 h 5 5 5.5 l 5,0.5 h 5 5 l 5,0.5 5.5,0.5 5,0.5 5,0.5 5,0.5 5,0.5 5.5,0.5 5,1 5,0.5 5,1 5,1 5.5,1 5,1 5,1 5,1 5,1 5.5,1 5,1.5 5,1 5,1 5,1.5 5.5,1.5 5,1 5,1.5 5,1.5 5,1 5,1.5 5.5,1.5 5,1.5 5,1.5 5,1.5 5,1.5 5.5,1.5 5,1.5 5,1 5,1.5 5,1.5 5.5,1.5 5,1.5 5,1.5 5,1.5 5,1.5" />
      <path
         id="path1415"
         style="fill:none;stroke:#9400d4;stroke-width:10;stroke-linecap:butt;stroke-linejoin:miter;stroke-miterlimit:3.8;stroke-dasharray:none;stroke-opacity:1"
         d="m 1521,799.5 5.5,1 5,1.5 5,1.5 5,1.5 5,1 5.5,1.5 5,1 5,1.5 5,1 5,1 5.5,1.5 5,1 5,1 5,1 5,1 5.5,1 5,1 5,1 5,0.5 5,1 5,0.5 5.5,1 5,0.5 5,0.5 5,0.5 5,0.5 5.5,0.5 5,0.5 5,0.5 5,0.5 h 5 l 5.5,0.5 h 5 5 l 5,0.5 h 5 5.5 5 5 l 5,-0.5 h 5 l 5.5,-0.5 h 5 l 5,-0.5 h 5 l 5,-0.5 5.5,-0.5 5,-0.5 5,-0.5 5,-0.5 5,-0.5 5,-0.5 5.5,-1 5,-0.5 5,-1 5,-0.5 5,-1 5.5,-0.5 5,-1 5,-1 5,-1 5,-0.5 5.5,-1 5,-1 5,-1 5,-1 5,-1 5.5,-1 5,-1 5,-1 5,-1.5 5,-1 5.5,-1 5,-1 5,-1 5,-1 5,-1.5 5.5,-1 5,-1 5,-1 5,-1 5,-1.5 5.5,-1 5,-1 5,-1 5,-1 5,-1 5,-1 5.5,-1 5,-1 5,-1 5,-1 5,-1 5.5,-0.5 5,-1 5,-1 5,-0.5 5,-1 5.5,-1 5,-0.5 5,-0.5 5,-1 5,-0.5 5.5,-0.5 5,-0.5 5,-0.5 5,-0.5 5,-0.5 5.5,-0.5 5,-0.5 5,-0.5 h 5 l 5,-0.5 h 5.5 l 5,-0.5 h 5 5 l 5,-0.5 h 5.5 5 5 5 l 5,0.5 h 5 5.5 l 5,0.5 h 5 l 5,0.5 h 5 l 5.5,0.5 5,0.5 5,0.5 5,0.5 5,0.5 5.5,0.5 5,0.5 5,0.5 5,0.5 5,0.5 5.5,1 5,0.5 5,0.5 5,1 5,0.5 5.5,1 5,0.5 5,1 5,1 5,0.5 5.5,1 5,1 5,1 5,0.5 5,1 5.5,1 5,1 5,1 5,0.5 5,1 5,1 5.5,1 5,1 5,1 5,0.5 5,1 5.5,1 5,1 5,1 5,0.5 5,1 5.5,1 5,0.5 5,1 5,1 5,0.5 5.5,1 5,0.5 5,0.5 5,1 5,0.5 5.5,0.5 5,1 5,0.5 5,0.5 5,0.5 5.5,0.5 5,0.5 5,0.5 5,0.5 5,0.5 h 5.5 l 5,0.5 5,0.5 h 5 l 5,0.5 h 5 l 5.5,0.5 h 5 5 5 5 5.5 5 5 5 5 5.5 l 5,-0.5 h 5 l 5,-0.5 h 5 l 5.5,-0.5 h 5 l 5,-0.5 5,-0.5 h 5 l 5.5,-0.5 5,-0.5 5,-0.5 5,-0.5 5,-0.5 5.5,-0.5 5,-0.5 5,-0.5 5,-1 5,-0.5 5.5,-0.5 5,-1 5,-0.5 5,-0.5 5,-1 5,-0.5 5.5,-1 5,-0.5 5,-0.5 5,-1 5,-0.5 5.5,-1 5,-1 5,-0.5 5,-1 5,-0.5 5.5,-1 5,-0.5 5,-1 5,-1 5,-0.5 5.5,-1 5,-0.5" />
      <path
         id="path1417"
         style="fill:none;stroke:#9400d4;stroke-width:10;stroke-linecap:butt;stroke-linejoin:miter;stroke-miterlimit:3.8;stroke-dasharray:none;stroke-opacity:1"
         d="m 2790.5,793 5,-1" />
      <path
         id="path1419"
         style="fill:none;stroke:#e61f0f;stroke-width:10;stroke-linecap:butt;stroke-linejoin:miter;stroke-miterlimit:3.8;stroke-dasharray:80, 120;stroke-dashoffset:0;stroke-opacity:1"
         d="m 252,2379.5 5,-0.5 5,-2 5.5,-3 5,-4.5 5,-6 5,-7 5,-8 5.5,-9.5 5,-10.5 5,-12 5,-12.5 5,-14.5 5.5,-15 5,-16.5 5,-17 5,-18.5 5,-19.5 5,-20 5.5,-21.5 5,-22 5,-23 5,-24 5,-24.5 5.5,-25 5,-26 5,-26.5 5,-27.5 5,-27.5 5.5,-28.5 5,-28.5 5,-29.5 5,-29.5 5,-30 5.5,-30 5,-30.5 5,-30.5 5,-31 5,-30.5 5.5,-31 5,-31 5,-31.5 5,-30.5 5,-31 5.5,-31 5,-30.5 5,-30.5 5,-30 5,-30 5.5,-29.5 5,-29.5 5,-28.5 5,-29 5,-28 5,-27.5 5.5,-27.5 5,-26.5 5,-26.5 5,-26 5,-25 5.5,-25 5,-24 5,-23.5 5,-23 5,-22.5 5.5,-22 5,-21 5,-20.5 5,-20 5,-19.5 5.5,-19 5,-18 5,-17.5 5,-17 5,-16.5 5.5,-16 5,-15 5,-14.5 5,-14 5,-13.5 5.5,-13 5,-12.5 5,-12 5,-11 5,-11 5.5,-10 5,-10 5,-9.5 5,-8.5 5,-8.5 5,-8 5.5,-7.5 5,-7 5,-7 5,-6.5 5,-6 5.5,-5.5 5,-5.5 5,-5 5,-4.5 5,-4.5 5.5,-4 5,-4 5,-3.5 5,-3.5 5,-3 5.5,-3 5,-2.5 5,-2.5 5,-2 5,-2.5 5.5,-2 5,-1.5 5,-2 5,-1.5 5,-1 5.5,-1.5 5,-1 5,-1.5 5,-0.5 5,-1 5.5,-1 5,-0.5 5,-1 5,-0.5 5,-0.5 5,-0.5 5.5,-0.5 5,-0.5 h 5 l 5,-0.5 h 5 l 5.5,-0.5 h 5 l 5,-0.5 h 5 5 l 5.5,-0.5 h 5 5 5 5 5.5 5 l 5,-0.5 h 5 5 5.5 5 5 5 5 5.5 5 5 5 5 5.5 5 5 5 5 5 5.5 5 5 m 44,0 h 2 5 5 5 5.5 5 5 5 5 5.5 1 m 55,0 h 5 5 5 5 5.5 5 5 5 5 5.5 5 5 1 m 70,0 h 0.5 5 5 5 5.5 5 5 5 5 5.5 5 5 5 5 5 5.5 3 m 92.5,0 h 1 5.5 5 5 5 5 5.5 5 5 5 5 5.5 5 5 5 5 5 5.5 5 5 5 4.5 m 127.5,0 h 0.5 5 5.5 5 5 5 5 5.5 5 5 5 5 5.5 5 5 5" />
      <path
         id="path1421"
         style="fill:none;stroke:#e61f0f;stroke-width:10;stroke-linecap:butt;stroke-linejoin:miter;stroke-miterlimit:3.8;stroke-dasharray:80, 120;stroke-dashoffset:0;stroke-opacity:1"
         d="m 1857.5,420 h 76 m 186.5,0 h 233.5 m 300.5,0 h 120" />
      <path
         id="path1423"
         style="fill:none;stroke:#e61f0f;stroke-width:10;stroke-linecap:butt;stroke-linejoin:miter;stroke-miterlimit:3.8;stroke-dasharray:80, 120;stroke-dashoffset:0;stroke-opacity:1"
         d="m 252,420 h 10 l 5.5,0.5 5,0.5 5,0.5 5,0.5 5,0.5 5.5,1 5,0.5 5,1 5,1 5,1.5 5.5,1 5,1.5 5,1.5 5,1.5 5,1.5 5,2 5.5,1.5 5,2 5,2 5,2.5 5,2 5.5,2.5 5,2.5 5,2.5 5,2.5 5,2.5 5.5,3 5,2.5 5,3 5,3 5,3 5.5,3.5 5,3 5,3.5 5,3.5 5,3.5 5.5,3.5 5,3.5 5,4 5,4 5,3.5 5.5,4 5,4 5,4 5,4.5 5,4 5.5,4.5 5,4 5,4.5 5,4.5 5,4.5 5,4.5 5.5,5 5,4.5 5,4.5 5,5 5,5 5.5,5 5,4.5 5,5 5,5 5,5.5 5.5,5 5,5 5,5 5,5.5 5,5 5.5,5.5 5,5 5,5.5 5,5.5 5,5.5 5.5,5.5 5,5 5,5.5 5,5.5 5,5.5 5.5,5.5 5,5.5 5,6 5,5.5 5,5.5 5.5,5.5 5,5.5 5,5.5 5,6 5,5.5 5,5.5 5.5,5.5 5,6 5,5.5 5,5.5 5,5.5 5.5,6 5,5.5 5,5.5 5,5.5 5,5.5 5.5,5.5 5,6 5,5.5 5,5.5 5,5.5 5.5,5.5 5,5.5 5,5.5 5,5.5 5,5 5.5,5.5 5,5.5 5,5.5 5,5 5,5.5 5.5,5 5,5.5 5,5 5,5.5 5,5 5.5,5 5,5.5 5,5 5,5 5,5 5,5 5.5,5 5,4.5 5,5 5,5 5,4.5 5.5,5 5,4.5 5,4.5 5,5 5,4.5 5.5,4.5 5,4.5 5,4.5 5,4.5 5,4 5.5,4.5 5,4.5 5,4 5,4 5,4.5 5.5,4 5,4 5,4 5,4 5,4 5.5,3.5 5,4 5,3.5 5,4 5,3.5 5.5,3.5 5,3.5 5,3.5 5,3.5 5,3.5 5,3.5 5.5,3 5,3.5 5,3 5,3.5 5,3 5.5,3 5,3 5,3 5,2.5 5,3 5.5,3 5,2.5 5,3 5,2.5 5,2.5 5.5,2.5 5,2.5 5,2.5 5,2 5,2.5 5.5,2.5 5,2 5,2 5,2.5 5,2 5.5,2 5,2 5,1.5 5,2 5,2 5.5,1.5 5,2 5,1.5 5,1.5 5,1.5 5,1.5 5.5,1.5 5,1.5 5,1.5 5,1 5,1.5 5.5,1 5,1 5,1.5 5,1 5,1 5.5,1 5,0.5 5,1 5,1 5,0.5 5.5,1 5,0.5 5,0.5 5,1 5,0.5 5.5,0.5 5,0.5 h 5 l 5,0.5 5,0.5 h 5.5 l 5,0.5 h 5 5 l 5,0.5 h 5.5 5 5 5 l 5,-0.5 h 5 5.5 l 5,-0.5 h 5 l 5,-0.5 5,-0.5 h 5.5 l 5,-0.5 5,-0.5 5,-0.5 5,-0.5 5.5,-0.5 5,-0.5 5,-1 5,-0.5 5,-0.5" />
      <path
         id="path1425"
         style="fill:none;stroke:#e61f0f;stroke-width:10;stroke-linecap:butt;stroke-linejoin:miter;stroke-miterlimit:3.8;stroke-dasharray:80, 120;stroke-dashoffset:0;stroke-opacity:1"
         d="m 1521,1193 5.5,-1 5,-0.5 5,-1 5,-1 5,-0.5 5.5,-1 5,-1 5,-1 5,-1 5,-1 5.5,-1 5,-1 5,-1 5,-1 5,-1.5 5.5,-1 5,-1 5,-1.5 5,-1 5,-1.5 5,-1 5.5,-1.5 5,-1.5 5,-1 5,-1.5 5,-1.5 5.5,-1.5 5,-1.5 5,-1 5,-1.5 5,-1.5 5.5,-1.5 5,-1.5 5,-2 5,-1.5 5,-1.5 5.5,-1.5 5,-1.5 5,-1.5 5,-2 5,-1.5 5.5,-1.5 5,-1.5 5,-2 5,-1.5 5,-1.5 5.5,-2 5,-1.5 5,-2 5,-1.5 5,-1.5 5,-2 5.5,-1.5 5,-2 5,-1.5 5,-2 5,-1.5 5.5,-2 5,-1.5 5,-2 5,-1.5 5,-2 5.5,-1.5 5,-1.5 5,-2 5,-1.5 5,-2 5.5,-1.5 5,-2 5,-1.5 5,-1.5 5,-2 5.5,-1.5 5,-1.5 5,-2 5,-1.5 5,-1.5 5.5,-2 5,-1.5 5,-1.5 5,-1.5 5,-2 5.5,-1.5 5,-1.5 5,-1.5 5,-1.5 5,-1.5 5,-1.5 5.5,-1.5 5,-1.5 5,-1.5 5,-1.5 5,-1 5.5,-1.5 5,-1.5 5,-1.5 5,-1 5,-1.5 5.5,-1.5 5,-1 5,-1.5 5,-1 5,-1.5 5.5,-1 5,-1 5,-1 5,-1.5 5,-1 5.5,-1 5,-1 5,-1 5,-1 5,-1 5.5,-1 5,-1 5,-1 5,-0.5 5,-1 5.5,-1 5,-0.5 5,-1 5,-0.5 5,-0.5 5,-1 5.5,-0.5 5,-0.5 5,-0.5 5,-1 5,-0.5 5.5,-0.5 5,-0.5 5,-0.5 h 5 l 5,-0.5 5.5,-0.5 h 5 l 5,-0.5 5,-0.5 h 5 l 5.5,-0.5 h 5 5 5 l 5,-0.5 h 5.5 5 5 5 5 5.5 l 5,0.5 h 5 5 5 l 5.5,0.5 h 5 l 5,0.5 h 5 l 5,0.5 5,0.5 h 5.5 l 5,0.5 5,0.5 5,0.5 5,0.5 5.5,0.5 5,0.5 5,0.5 5,0.5 5,0.5 5.5,0.5 5,1 5,0.5 5,0.5 5,1 5.5,0.5 5,0.5 5,1 5,0.5 5,1 5.5,1 5,0.5 5,1 5,1 5,0.5 5.5,1 5,1 5,1 5,1 5,1 5.5,0.5 5,1 5,1 5,1 5,1 5,1 5.5,1.5 5,1 5,1 5,1 5,1 5.5,1 5,1 5,1.5 5,1 5,1 5.5,1 5,1.5 5,1 5,1 5,1.5 5.5,1 5,1 5,1.5 5,1 5,1 5.5,1.5 5,1 5,1 5,1.5 5,1 5.5,1 5,1.5 5,1 5,1 5,1.5 5.5,1 5,1 5,1.5 5,1 5,1 5,1.5 5.5,1 5,1 5,1 5,1.5 5,1 5.5,1 5,1 5,1 5,1.5 5,1 5.5,1 5,1 5,1 5,1 5,1 5.5,1 5,1" />
      <path
         id="path1427"
         style="fill:none;stroke:#e61f0f;stroke-width:10;stroke-linecap:butt;stroke-linejoin:miter;stroke-miterlimit:3.8;stroke-dasharray:80, 120;stroke-dashoffset:0;stroke-opacity:1"
         d="m 2790.5,1103.5 5,1" />
      <path
         id="path1429"
         style="fill:none;stroke:#0073b2;stroke-width:10;stroke-linecap:butt;stroke-linejoin:miter;stroke-miterlimit:3.8;stroke-dasharray:40, 60;stroke-dashoffset:0;stroke-opacity:1"
         d="m 252,2379.5 5,-0.5 5,-1 5.5,-1.5 5,-2 5,-3 5,-3.5 5,-4 5.5,-5 5,-5.5 5,-6 5,-6.5 5,-7.5 5.5,-8 5,-8 5,-9.5 5,-9.5 5,-10 5,-11 5.5,-11 5,-12 5,-12.5 5,-12.5 5,-13.5 5.5,-14 5,-14.5 5,-14.5 5,-15.5 5,-15.5 5.5,-16.5 5,-16.5 5,-17 5,-17 5,-18 5.5,-18 5,-18.5 5,-18.5 5,-19 5,-19.5 5.5,-19.5 5,-20 5,-20 5,-20 5,-21 5.5,-20.5 5,-21 5,-21 5,-21 5,-21.5 5.5,-21.5 5,-21.5 5,-21.5 5,-21.5 5,-22 5,-22 5.5,-21.5 5,-22 5,-21.5 5,-22 5,-21.5 5.5,-22 5,-21.5 5,-21.5 5,-21.5 5,-21.5 5.5,-21 5,-21.5 5,-21 5,-21 5,-20.5 5.5,-20.5 5,-20.5 5,-20 5,-20 5,-20 5.5,-19.5 5,-19 5,-19.5 5,-18.5 5,-19 5.5,-18.5 5,-18 5,-18 5,-17.5 5,-17.5 5.5,-17 5,-16.5 5,-16.5 5,-16.5 5,-16 5,-15.5 5.5,-15.5 5,-15 5,-15 5,-14 5,-14.5 5.5,-14 5,-13.5 5,-13 5,-13 5,-13 5.5,-12.5 5,-12 5,-11.5 5,-11.5 5,-11.5 5.5,-11 5,-10.5 5,-10.5 5,-10 5,-10 5.5,-9.5 5,-9 5,-9 5,-9 5,-8.5 5.5,-8 5,-8 5,-8 5,-7.5 5,-7 5.5,-7 5,-7 5,-6.5 5,-6.5 5,-6 5,-6 5.5,-5.5 5,-5.5 5,-5.5 5,-5 5,-5 5.5,-4.5 5,-4.5 5,-4.5 5,-4 5,-4.5 5.5,-3.5 5,-4 5,-3.5 5,-3.5 5,-3 5.5,-3.5 5,-3 5,-2.5 5,-3 5,-2.5 5.5,-2.5 5,-2.5 5,-2.5 5,-2 5,-2 5.5,-2 5,-2 5,-2 5,-1.5 5,-2 5.5,-1.5 5,-1.5 5,-1 5,-1.5 5,-1.5 5,-1 5.5,-1 5,-1 5,-1.5 5,-0.5 5,-1 5.5,-1 5,-1 5,-0.5 5,-1 5,-0.5 5.5,-0.5 5,-1 5,-0.5 5,-0.5 5,-0.5 5.5,-0.5 5,-0.5 5,-0.5 h 5 l 5,-0.5 5.5,-0.5 h 5 l 5,-0.5 5,-0.5 h 5 l 5.5,-0.5 h 5 l 5,-0.5 h 5 5 l 5.5,-0.5 h 5 5 l 5,-0.5 h 5 5 5.5 l 5,-0.5 h 5 5 5 5.5 5 l 5,-0.5 h 5 5 5.5 5 5 5 5 5.5 5 5 5 l 5,-0.5 h 5.5 5 5 5 5 5.5 5 5 5 5 5.5 5 5 5 5 5 5.5 5 5 5 5 5.5 5 5 5 5 5.5 5 5 5 5" />
      <path
         id="path1431"
         style="fill:none;stroke:#0073b2;stroke-width:10;stroke-linecap:butt;stroke-linejoin:miter;stroke-miterlimit:3.8;stroke-dasharray:40, 60;stroke-dashoffset:0;stroke-opacity:1"
         d="m 1521,420 h 372.5 m 42,0 h 44.5 m 46.5,0 h 49.5 m 52,0 h 55 m 58.5,0 h 62 m 66.5,0 h 70.5 m 75.5,0 h 81 m 86.5,0 h 93.5" />
      <path
         id="path1433"
         style="fill:none;stroke:#0073b2;stroke-width:10;stroke-linecap:butt;stroke-linejoin:miter;stroke-miterlimit:3.8;stroke-dasharray:40, 60;stroke-dashoffset:0;stroke-opacity:1"
         d="m 252,420 h 15.5 l 5,0.5 h 5 l 5,0.5 5,0.5 h 5.5 l 5,0.5 5,0.5 5,0.5 5,0.5 5.5,1 5,0.5 5,1 5,0.5 5,1 5,1 5.5,1 5,1 5,1 5,1 5,1 5.5,1.5 5,1 5,1.5 5,1 5,1.5 5.5,1.5 5,1.5 5,1.5 5,1.5 5,2 5.5,1.5 5,1.5 5,2 5,2 5,1.5 5.5,2 5,2 5,2 5,2 5,2.5 5.5,2 5,2 5,2.5 5,2 5,2.5 5.5,2.5 5,2.5 5,2 5,2.5 5,3 5,2.5 5.5,2.5 5,2.5 5,3 5,2.5 5,3 5.5,3 5,2.5 5,3 5,3 5,3 5.5,3 5,3 5,3.5 5,3 5,3 5.5,3.5 5,3 5,3.5 5,3 5,3.5 5.5,3.5 5,3.5 5,3.5 5,3.5 5,3.5 5.5,3.5 5,3.5 5,3.5 5,4 5,3.5 5.5,4 5,3.5 5,4 5,3.5 5,4 5,4 5.5,4 5,3.5 5,4 5,4 5,4 5.5,4 5,4.5 5,4 5,4 5,4 5.5,4 5,4.5 5,4 5,4.5 5,4 5.5,4.5 5,4 5,4.5 5,4.5 5,4 5.5,4.5 5,4.5 5,4.5 5,4 5,4.5 5.5,4.5 5,4.5 5,4.5 5,4.5 5,4.5 5.5,4.5 5,4.5 5,5 5,4.5 5,4.5 5,4.5 5.5,4.5 5,5 5,4.5 5,4.5 5,4.5 5.5,5 5,4.5 5,5 5,4.5 5,4.5 5.5,5 5,4.5 5,5 5,4.5 5,5 5.5,4.5 5,5 5,4.5 5,5 5,4.5 5.5,5 5,4.5 5,5 5,4.5 5,5 5.5,4.5 5,5 5,5 5,4.5 5,5 5.5,4.5 5,5 5,4.5 5,5 5,5 5,4.5 5.5,5 5,4.5 5,5 5,4.5 5,5 5.5,4.5 5,5 5,4.5 5,5 5,4.5 5.5,5 5,4.5 5,5 5,4.5 5,5 5.5,4.5 5,4.5 5,5 5,4.5 5,5 5.5,4.5 5,4.5 5,4.5 5,5 5,4.5 5.5,4.5 5,4.5 5,5 5,4.5 5,4.5 5.5,4.5 5,4.5 5,4.5 5,4.5 5,5 5,4.5 5.5,4.5 5,4.5 5,4 5,4.5 5,4.5 5.5,4.5 5,4.5 5,4.5 5,4.5 5,4 5.5,4.5 5,4.5 5,4 5,4.5 5,4.5 5.5,4 5,4.5 5,4 5,4.5 5,4 5.5,4.5 5,4 5,4 5,4.5 5,4 5.5,4 5,4.5 5,4 5,4 5,4 5.5,4 5,4 5,4 5,4 5,4 5,4 5.5,4 5,4 5,3.5 5,4 5,4 5.5,4 5,3.5 5,4 5,3.5 5,4 5.5,3.5 5,4 5,3.5 5,4 5,3.5" />
      <path
         id="path1435"
         style="fill:none;stroke:#0073b2;stroke-width:10;stroke-linecap:butt;stroke-linejoin:miter;stroke-miterlimit:3.8;stroke-dasharray:40, 60;stroke-dashoffset:0;stroke-opacity:1"
         d="m 1521,1314.5 5.5,3.5 5,4 5,3.5 5,3.5 5,3.5 5.5,3.5 5,3.5 5,3.5 5,3.5 5,3.5 5.5,3.5 5,3.5 5,3.5 5,3.5 5,3 5.5,3.5 5,3.5 5,3 5,3.5 5,3 5,3.5 5.5,3 5,3.5 5,3 5,3 5,3.5 5.5,3 5,3 5,3 5,3 5,3.5 5.5,3 5,3 5,2.5 5,3 5,3 5.5,3 5,3 5,3 5,2.5 5,3 5.5,3 5,2.5 5,3 5,2.5 5,3 5.5,2.5 5,3 5,2.5 5,2.5 5,2.5 5,3 5.5,2.5 5,2.5 5,2.5 5,2.5 5,2.5 5.5,2.5 5,2.5 5,2.5 5,2.5 5,2 5.5,2.5 5,2.5 5,2.5 5,2 5,2.5 5.5,2 5,2.5 5,2 5,2.5 5,2 5.5,2.5 5,2 5,2 5,2 5,2.5 5.5,2 5,2 5,2 5,2 5,2 5.5,2 5,2 5,2 5,2 5,2 5,1.5 5.5,2 5,2 5,1.5 5,2 5,2 5.5,1.5 5,2 5,1.5 5,2 5,1.5 5.5,1.5 5,2 5,1.5 5,1.5 5,1.5 5.5,2 5,1.5 5,1.5 5,1.5 5,1.5 5.5,1.5 5,1.5 5,1.5 5,1.5 5,1 5.5,1.5 5,1.5 5,1.5 5,1 5,1.5 5.5,1.5 5,1 5,1.5 5,1 5,1.5 5,1 5.5,1.5 5,1 5,1.5 5,1 5,1 5.5,1 5,1.5 5,1 5,1 5,1 5.5,1 5,1 5,1 5,1 5,1 5.5,1 5,1 5,1 5,1 5,0.5 5.5,1 5,1 5,1 5,0.5 5,1 5.5,0.5 5,1 5,1 5,0.5 5,1 5.5,0.5 5,0.5 5,1 5,0.5 5,0.5 5,1 5.5,0.5 5,0.5 5,0.5 5,1 5,0.5 5.5,0.5 5,0.5 5,0.5 5,0.5 5,0.5 5.5,0.5 5,0.5 5,0.5 h 5 l 5,0.5 5.5,0.5 5,0.5 5,0.5 h 5 l 5,0.5 5.5,0.5 h 5 l 5,0.5 5,0.5 h 5 l 5.5,0.5 h 5 l 5,0.5 h 5 l 5,0.5 h 5.5 5 l 5,0.5 h 5 5 5 l 5.5,0.5 h 5 5 5 5 5.5 l 5,0.5 h 5 5 5 5.5 l 5,-0.5 h 5 5 5 5.5 5 5 l 5,-0.5 h 5 5.5 5 l 5,-0.5 h 5 5 l 5.5,-0.5 h 5 l 5,-0.5 h 5 l 5,-0.5 h 5.5 l 5,-0.5 h 5 l 5,-0.5 h 5 l 5,-0.5 5.5,-0.5 h 5 l 5,-0.5 5,-0.5 h 5 l 5.5,-0.5 5,-0.5 5,-0.5 5,-0.5 h 5 l 5.5,-0.5 5,-0.5 5,-0.5 5,-0.5 5,-0.5 5.5,-0.5 5,-0.5" />
      <path
         id="path1437"
         style="fill:none;stroke:#0073b2;stroke-width:10;stroke-linecap:butt;stroke-linejoin:miter;stroke-miterlimit:3.8;stroke-dasharray:40, 60;stroke-dashoffset:0;stroke-opacity:1"
         d="m 2790.5,1649 5,-0.5" />
      <path
         id="path1439"
         style="fill:none;stroke:#e69e00;stroke-width:10;stroke-linecap:butt;stroke-linejoin:miter;stroke-miterlimit:3.8;stroke-dasharray:240, 80, 40, 80;stroke-dashoffset:0;stroke-opacity:1"
         d="m 252,2379.5 h 5 l 5,-0.5 5.5,-1 5,-1 5,-1.5 5,-2 5,-2 5.5,-2.5 5,-2.5 5,-3 5,-3.5 5,-3.5 5.5,-4 5,-4.5 5,-4.5 5,-5 5,-5.5 5,-5.5 5.5,-5.5 5,-6.5 5,-6.5 5,-6.5 5,-7 5.5,-7.5 5,-7.5 5,-7.5 5,-8.5 5,-8 5.5,-9 5,-9 5,-9 5,-9.5 5,-9.5 5.5,-10 5,-10 5,-10.5 5,-10.5 5,-11 5.5,-11 5,-11.5 5,-11.5 5,-11.5 5,-12 5.5,-12 5,-12.5 5,-12.5 5,-12.5 5,-13 5.5,-13 5,-13 5,-13.5 5,-13 5,-14 5,-13.5 5.5,-14 5,-14 5,-14 5,-14.5 5,-14 5.5,-14.5 5,-14.5 5,-15 5,-14.5 5,-15 5.5,-15 5,-15 5,-15 5,-15 5,-15 5.5,-15 5,-15.5 5,-15 5,-15.5 5,-15.5 5.5,-15 5,-15.5 5,-15.5 5,-15.5 5,-15 5.5,-15.5 5,-15.5 5,-15.5 5,-15 5,-15.5 5.5,-15 5,-15.5 5,-15 5,-15.5 5,-15 5,-15 5.5,-15 5,-15 5,-15 5,-14.5 5,-15 5.5,-14.5 5,-14.5 5,-14.5 5,-14.5 5,-14.5 5.5,-14 5,-14.5 5,-14 5,-14 5,-13.5 5.5,-14 5,-13.5 5,-13.5 5,-13.5 5,-13 5.5,-13 5,-13.5 5,-12.5 5,-13 5,-12.5 5.5,-12.5 5,-12.5 5,-12 5,-12.5 5,-12 5.5,-11.5 5,-12 5,-11.5 5,-11.5 5,-11 5,-11 5.5,-11 5,-11 5,-10.5 5,-11 5,-10 5.5,-10.5 5,-10 5,-10 5,-10 5,-9.5 5.5,-9.5 5,-9.5 5,-9 5,-9 5,-9 5.5,-9 5,-8.5 5,-8.5 5,-8.5 5,-8 5.5,-8 5,-8 5,-8 5,-7.5 5,-7.5 5.5,-7.5 5,-7 5,-7 5,-7 5,-7 5.5,-6.5 5,-6.5 5,-6.5 5,-6.5 5,-6 5,-6 5.5,-6 5,-5.5 5,-6 5,-5.5 5,-5.5 5.5,-5 5,-5.5 5,-5 5,-5 5,-4.5 5.5,-5 5,-4.5 5,-4.5 5,-4.5 5,-4 5.5,-4.5 5,-4 5,-4 5,-4 5,-3.5 5.5,-3.5 5,-4 5,-3.5 5,-3.5 5,-3 5.5,-3.5 5,-3 5,-3 5,-3 5,-3 5.5,-3 5,-2.5 5,-2.5 5,-3 5,-2.5 5,-2.5 5.5,-2 5,-2.5 5,-2.5 5,-2 5,-2 5.5,-2 5,-2 5,-2 5,-2 5,-2 5.5,-1.5 5,-1.5 5,-2 5,-1.5 5,-1.5 5.5,-1.5 5,-1.5 5,-1.5 5,-1.5 5,-1 5.5,-1.5 5,-1 5,-1.5 5,-1 5,-1 5.5,-1 5,-1.5 5,-1 5,-0.5 5,-1 5.5,-1 5,-1 5,-1 5,-0.5 5,-1 5,-0.5 5.5,-1 5,-0.5 5,-1 5,-0.5 5,-0.5 5.5,-0.5 5,-0.5 5,-1 5,-0.5 5,-0.5 5.5,-0.5 5,-0.5 5,-0.5 h 5 l 5,-0.5" />
      <path
         id="path1441"
         style="fill:none;stroke:#e69e00;stroke-width:10;stroke-linecap:butt;stroke-linejoin:miter;stroke-miterlimit:3.8;stroke-dasharray:240, 80, 40, 80;stroke-dashoffset:0;stroke-opacity:1"
         d="m 1521,429.5 5.5,-0.5 5,-0.5 5,-0.5 h 5 l 5,-0.5 5.5,-0.5 h 5 l 5,-0.5 5,-0.5 h 5 l 5.5,-0.5 h 5 l 5,-0.5 h 5 l 5,-0.5 h 5.5 l 5,-0.5 h 5 5 l 5,-0.5 h 5 5.5 l 5,-0.5 h 5 5 l 5,-0.5 h 5.5 5 5 l 5,-0.5 h 5 5.5 5 5 l 5,-0.5 h 5 5.5 5 5 5 l 5,-0.5 h 5.5 5 5 5 5 5.5 5 5 5 l 5,-0.5 h 5 5.5 5 5 5 5 5.5 5 5 5 5 5.5 5 5 5 5 5.5 l 5,-0.5 h 5 5 5 5.5 5 5 5 5 5.5 5 5 5 5 5.5 5 5 5 5 5 5.5 5 5 5 5 5.5 5 5 5 5 5.5 5 5 5 5 5.5 5 5 5 5 5.5 5 5 5 5 5.5 5 5 5 5 5.5 5 5 5 5 5 5.5 5 5 5 5 5.5 5 5 5 5 5.5 5 5 5 5 5.5 5 5 5 5 5.5 5 5 5 5 5.5 5 5 5 5 5.5 5 5 5 5 5 5.5 5 5 5 5 5.5 5 5 5 5 5.5 5 5 5 5 5.5 5 5 5 5 5.5 5 5 5 5 5.5 5 5 5 5 5.5 5 5 5 5 5 5.5 5 5 5 5 5.5 5 5 5 5 5.5 5 5 5 5 5.5 5 5 5 5 5.5 5 5 5 5 5.5 5 5 5 5 5.5 5 5 5 5 5 5.5 5 5 5 5 5.5 5 5 5 5 5.5 5 5 5 5 5.5 5" />
      <path
         id="path1443"
         style="fill:none;stroke:#e69e00;stroke-width:10;stroke-linecap:butt;stroke-linejoin:miter;stroke-miterlimit:3.8;stroke-dasharray:240, 80, 40, 80;stroke-dashoffset:0;stroke-opacity:1"
         d="m 2790.5,420 h 5" />
      <path
         id="path1445"
         style="fill:none;stroke:#e69e00;stroke-width:10;stroke-linecap:butt;stroke-linejoin:miter;stroke-miterlimit:3.8;stroke-dasharray:240, 80, 40, 80;stroke-dashoffset:0;stroke-opacity:1"
         d="m 252,420 h 20.5 l 5,0.5 h 10 l 5.5,0.5 h 5 l 5,0.5 h 5 l 5,0.5 h 5.5 l 5,0.5 5,0.5 5,0.5 5,0.5 h 5 l 5.5,0.5 5,0.5 5,0.5 5,1 5,0.5 5.5,0.5 5,0.5 5,1 5,0.5 5,0.5 5.5,1 5,0.5 5,1 5,0.5 5,1 5.5,1 5,1 5,0.5 5,1 5,1 5.5,1 5,1 5,1 5,1 5,1.5 5.5,1 5,1 5,1 5,1.5 5,1 5.5,1.5 5,1 5,1.5 5,1 5,1.5 5,1.5 5.5,1.5 5,1 5,1.5 5,1.5 5,1.5 5.5,1.5 5,1.5 5,1.5 5,1.5 5,1.5 5.5,2 5,1.5 5,1.5 5,2 5,1.5 5.5,2 5,1.5 5,2 5,1.5 5,2 5.5,1.5 5,2 5,2 5,2 5,2 5.5,2 5,1.5 5,2 5,2.5 5,2 5.5,2 5,2 5,2 5,2 5,2.5 5,2 5.5,2 5,2.5 5,2 5,2.5 5,2 5.5,2.5 5,2 5,2.5 5,2.5 5,2 5.5,2.5 5,2.5 5,2.5 5,2.5 5,2.5 5.5,2.5 5,2.5 5,2.5 5,2.5 5,2.5 5.5,2.5 5,2.5 5,2.5 5,3 5,2.5 5.5,2.5 5,3 5,2.5 5,3 5,2.5 5.5,2.5 5,3 5,3 5,2.5 5,3 5,3 5.5,2.5 5,3 5,3 5,3 5,2.5 5.5,3 5,3 5,3 5,3 5,3 5.5,3 5,3 5,3 5,3 5,3 5.5,3 5,3.5 5,3 5,3 5,3 5.5,3.5 5,3 5,3 5,3.5 5,3 5.5,3.5 5,3 5,3.5 5,3 5,3.5 5.5,3 5,3.5 5,3 5,3.5 5,3.5 5,3 5.5,3.5 5,3.5 5,3 5,3.5 5,3.5 5.5,3.5 5,3.5 5,3 5,3.5 5,3.5 5.5,3.5 5,3.5 5,3.5 5,3.5 5,3.5 5.5,3.5 5,3.5 5,3.5 5,3.5 5,3.5 5.5,3.5 5,3.5 5,3.5 5,3.5 5,4 5.5,3.5 5,3.5 5,3.5 5,3.5 5,4 5.5,3.5 5,3.5 5,3.5 5,4 5,3.5 5,3.5 5.5,4 5,3.5 5,3.5 5,4 5,3.5 5.5,3.5 5,4 5,3.5 5,3.5 5,4 5.5,3.5 5,4 5,3.5 5,4 5,3.5 5.5,4 5,3.5 5,4 5,3.5 5,4 5.5,3.5 5,4 5,3.5 5,4 5,3.5 5.5,4 5,3.5 5,4 5,3.5 5,4 5.5,4 5,3.5 5,4 5,3.5 5,4 5,3.5 5.5,4 5,4 5,3.5 5,4 5,3.5 5.5,4 5,4 5,3.5 5,4 5,3.5 5.5,4 5,4 5,3.5 5,4 5,3.5" />
      <path
         id="path1447"
         style="fill:none;stroke:#e69e00;stroke-width:10;stroke-linecap:butt;stroke-linejoin:miter;stroke-miterlimit:3.8;stroke-dasharray:240, 80, 40, 80;stroke-dashoffset:0;stroke-opacity:1"
         d="m 1521,1042 5.5,4 5,4 5,3.5 5,4 5,3.5 5.5,4 5,4 5,3.5 5,4 5,3.5 5.5,4 5,4 5,3.5 5,4 5,3.5 5.5,4 5,4 5,3.5 5,4 5,3.5 5,4 5.5,3.5 5,4 5,3.5 5,4 5,3.5 5.5,4 5,3.5 5,4 5,4 5,3.5 5.5,3.5 5,4 5,3.5 5,4 5,3.5 5.5,4 5,3.5 5,4 5,3.5 5,4 5.5,3.5 5,3.5 5,4 5,3.5 5,4 5.5,3.5 5,3.5 5,4 5,3.5 5,3.5 5,4 5.5,3.5 5,3.5 5,3.5 5,4 5,3.5 5.5,3.5 5,3.5 5,4 5,3.5 5,3.5 5.5,3.5 5,4 5,3.5 5,3.5 5,3.5 5.5,3.5 5,3.5 5,3.5 5,3.5 5,4 5.5,3.5 5,3.5 5,3.5 5,3.5 5,3.5 5.5,3.5 5,3.5 5,3.5 5,3.5 5,3.5 5.5,3.5 5,3.5 5,3 5,3.5 5,3.5 5,3.5 5.5,3.5 5,3.5 5,3.5 5,3 5,3.5 5.5,3.5 5,3.5 5,3 5,3.5 5,3.5 5.5,3.5 5,3 5,3.5 5,3 5,3.5 5.5,3.5 5,3 5,3.5 5,3 5,3.5 5.5,3.5 5,3 5,3.5 5,3 5,3.5 5.5,3 5,3 5,3.5 5,3 5,3.5 5.5,3 5,3 5,3.5 5,3 5,3 5,3 5.5,3.5 5,3 5,3 5,3 5,3.5 5.5,3 5,3 5,3 5,3 5,3 5.5,3 5,3 5,3 5,3 5,3 5.5,3 5,3 5,3 5,3 5,3 5.5,3 5,3 5,3 5,3 5,2.5 5.5,3 5,3 5,3 5,3 5,2.5 5.5,3 5,3 5,2.5 5,3 5,3 5,2.5 5.5,3 5,2.5 5,3 5,3 5,2.5 5.5,3 5,2.5 5,3 5,2.5 5,2.5 5.5,3 5,2.5 5,3 5,2.5 5,2.5 5.5,3 5,2.5 5,2.5 5,2.5 5,3 5.5,2.5 5,2.5 5,2.5 5,2.5 5,2.5 5.5,3 5,2.5 5,2.5 5,2.5 5,2.5 5.5,2.5 5,2.5 5,2.5 5,2.5 5,2.5 5,2.5 5.5,2.5 5,2.5 5,2 5,2.5 5,2.5 5.5,2.5 5,2.5 5,2.5 5,2 5,2.5 5.5,2.5 5,2.5 5,2 5,2.5 5,2.5 5.5,2 5,2.5 5,2 5,2.5 5,2 5.5,2.5 5,2.5 5,2 5,2.5 5,2 5.5,2 5,2.5 5,2 5,2.5 5,2 5.5,2 5,2.5 5,2 5,2 5,2.5 5,2 5.5,2 5,2 5,2.5 5,2 5,2 5.5,2 5,2 5,2 5,2 5,2.5 5.5,2 5,2 5,2 5,2 5,2 5.5,2 5,2" />
      <path
         id="path1449"
         style="fill:none;stroke:#e69e00;stroke-width:10;stroke-linecap:butt;stroke-linejoin:miter;stroke-miterlimit:3.8;stroke-dasharray:240, 80, 40, 80;stroke-dashoffset:0;stroke-opacity:1"
         d="m 2790.5,1802.5 5,2" />
      <path
         id="path1451"
         style="fill:none;stroke:#000000;stroke-width:5;stroke-linecap:butt;stroke-linejoin:miter;stroke-miterlimit:3.8;stroke-dasharray:none;stroke-opacity:1"
         d="M 252,2379.5 V 420 h 2543.5 v 1959.5 z" />
    </g>
  </g>
</svg>
