<?xml version="1.0" encoding="UTF-8" standalone="no"?>
<svg
   xmlns:dc="http://purl.org/dc/elements/1.1/"
   xmlns:cc="http://creativecommons.org/ns#"
   xmlns:rdf="http://www.w3.org/1999/02/22-rdf-syntax-ns#"
   xmlns:svg="http://www.w3.org/2000/svg"
   xmlns="http://www.w3.org/2000/svg"
   xmlns:sodipodi="http://sodipodi.sourceforge.net/DTD/sodipodi-0.dtd"
   xmlns:inkscape="http://www.inkscape.org/namespaces/inkscape"
   width="80px"
   height="80px"
   viewBox="0 0 37 37"
   version="1.1"
   xml:space="preserve"
   id="svg12"
   sodipodi:docname="WPPT_logo.svg"
   inkscape:version="1.0 (4035a4fb49, 2020-05-01)"><metadata
     id="metadata18"><rdf:RDF><cc:Work
         rdf:about=""><dc:format>image/svg+xml</dc:format><dc:type
           rdf:resource="http://purl.org/dc/dcmitype/StillImage" /><dc:title /></cc:Work></rdf:RDF></metadata><defs
     id="defs16" /><sodipodi:namedview
     inkscape:document-rotation="0"
     pagecolor="#ffffff"
     bordercolor="#666666"
     borderopacity="1"
     objecttolerance="10"
     gridtolerance="10"
     guidetolerance="10"
     inkscape:pageopacity="0"
     inkscape:pageshadow="2"
     inkscape:window-width="1920"
     inkscape:window-height="1017"
     id="namedview14"
     showgrid="false"
     inkscape:zoom="8.35"
     inkscape:cx="40"
     inkscape:cy="40"
     inkscape:window-x="-8"
     inkscape:window-y="-8"
     inkscape:window-maximized="1"
     inkscape:current-layer="svg12" /><path
     fill="#089c9c"
     d="M30.958,23.265c-1.594,4.235 -5.28,7.444 -9.798,8.367c-0.739,0.184 -1.477,0.274 -2.282,0.263c-0.131,0.003 -0.263,0.006 -0.394,0.006c-0.188,0 -0.375,-0.004 -0.56,-0.012l2.329,-2.396l-4.114,-4.659l4.504,0c2.026,0 2.374,1.21 2.578,1.896l0.39,0l-0.205,-2.728l-10.603,0l5.507,6.249l-1.504,1.543c-4.969,-0.624 -9.087,-3.987 -10.796,-8.53c1.98,-0.508 3.471,-2.237 3.622,-4.337l4.026,0c0.179,2.509 2.271,4.489 4.827,4.489c2.553,0 4.646,-1.98 4.825,-4.489l4.027,0c0.149,2.101 1.64,3.83 3.621,4.338M30.958,13.892c-1.98,0.508 -3.472,2.237 -3.621,4.336l-4.027,0c-0.171,-2.394 -2.083,-4.305 -4.476,-4.477l0,-4.026c2.1,-0.15 3.829,-1.64 4.337,-3.62c3.585,1.35 6.437,4.2 7.787,7.787M18.133,13.752c-2.394,0.171 -4.305,2.083 -4.476,4.477l-4.026,0c-0.151,-2.099 -1.641,-3.829 -3.622,-4.336c1.35,-3.587 4.201,-6.438 7.788,-7.787c0.507,1.979 2.237,3.47 4.336,3.62l0,4.026ZM37.002,18.579c0,-2.672 -2.167,-4.839 -4.839,-4.839c-0.165,0 -0.33,0.009 -0.491,0.025c-1.417,-3.878 -4.497,-6.957 -8.375,-8.375c0.017,-0.162 0.024,-0.325 0.024,-0.492c0,-2.672 -2.166,-4.838 -4.837,-4.838c-2.673,0 -4.839,2.167 -4.839,4.838c0,0.167 0.009,0.33 0.025,0.492c-3.877,1.417 -6.958,4.496 -8.374,8.375c-0.162,-0.017 -0.326,-0.025 -0.492,-0.025c-2.672,0 -4.839,2.167 -4.839,4.839c0,2.672 2.167,4.839 4.839,4.839c0.166,0 0.33,-0.008 0.492,-0.025c1.711,4.688 5.852,8.206 10.896,9.035l-3.635,3.731l11.198,0l0.758,-3.702l-0.409,0c-0.613,1.752 -1.372,2.004 -2.683,2.004l-5.998,0l1.847,-1.899c0.369,0.032 0.743,0.05 1.12,0.053c1.047,0.011 1.968,-0.077 2.952,-0.291c4.787,-0.99 8.682,-4.42 10.33,-8.931c0.161,0.018 0.326,0.025 0.491,0.025c2.672,0 4.839,-2.167 4.839,-4.839"
     id="path10" /><path
     transform="scale(0.4625)"
     id="path7"
     d="m 27.980254,77.45509 c 0.333741,-0.345809 2.069073,-2.134084 3.856293,-3.973947 1.787221,-1.839863 3.235539,-3.359156 3.218485,-3.37621 -0.01705,-0.01705 -0.595032,-0.147884 -1.284398,-0.290734 -5.657326,-1.172313 -11.05176,-4.101313 -15.20776,-8.257313 -2.803143,-2.803143 -5.210205,-6.41968 -6.655708,-10 l -0.386813,-0.958084 -1.478739,-0.07257 C 8.2669453,50.439129 7.3651915,50.218816 5.9097695,49.516745 -0.74626407,46.30599 -2.0448867,37.471471 3.4068247,32.489232 5.305176,30.754358 7.7213558,29.820359 10.310989,29.820359 c 1.029885,0 1.203243,-0.02874 1.264342,-0.209581 0.228659,-0.676795 1.360762,-3.122879 1.870691,-4.041916 2.89395,-5.215737 7.283898,-9.502172 12.542002,-12.246272 0.757485,-0.395316 1.875748,-0.921577 2.48503,-1.169467 l 1.107784,-0.45071 v -1.038792 c 0,-5.7669776 4.610528,-10.42410004 10.319806,-10.42410004 2.840443,0 5.137413,0.90071784 7.134352,2.79761404 2.17075,2.0619996 3.276617,4.5657872 3.294387,7.458804 l 0.0075,1.217444 0.849533,0.329314 c 1.16938,0.453301 3.268661,1.51084 4.561817,2.298073 3.64422,2.218487 7.077778,5.547843 9.541616,9.252044 0.881356,1.325057 2.403712,4.247976 2.85004,5.472075 l 0.264326,0.724936 1.576346,0.05944 c 1.339012,0.05049 1.747642,0.115467 2.714071,0.431589 1.483754,0.485342 2.791388,1.26389 3.914243,2.330493 2.218089,2.106967 3.291026,4.572736 3.288837,7.558238 -0.002,2.751648 -0.943323,5.134478 -2.800763,7.08988 -2.016938,2.123316 -4.679328,3.279461 -7.551995,3.279461 H 68.421101 L 68.08593,51.40719 c -0.583879,1.512545 -1.869813,3.92856 -2.948113,5.538922 -4.949073,7.391082 -12.604693,12.127857 -21.485095,13.293509 -0.963897,0.126523 -2.250006,0.182791 -3.905724,0.17088 l -2.468597,-0.01776 -1.992481,2.031373 c -1.095864,1.117255 -1.99248,2.066314 -1.99248,2.109021 0,0.123867 13.248216,0.08791 14.3516,-0.03895 2.1868,-0.251427 3.341759,-1.270977 4.378818,-3.865438 0.154558,-0.386664 0.232259,-0.449102 0.558876,-0.449102 0.3345,0 0.371008,0.03186 0.308724,0.269461 -0.03885,0.148203 -0.407322,1.926647 -0.818829,3.952096 l -0.748194,3.682634 H 39.348931 27.373451 Z M 44.97006,68.636895 c 4.01886,-0.867345 6.799103,-1.910323 9.717639,-3.645461 4.564942,-2.713965 8.297755,-6.632561 10.801166,-11.338739 0.662292,-1.245049 1.457243,-3.042259 1.457243,-3.294511 0,-0.08773 -0.17515,-0.194473 -0.389222,-0.237202 -0.214072,-0.04273 -0.928143,-0.34241 -1.586826,-0.665956 -3.060285,-1.503216 -5.150113,-4.332395 -5.694933,-7.709719 l -0.146313,-0.906984 h -4.414706 -4.414707 v 0.36558 c 0,0.531777 -0.335996,1.924796 -0.669555,2.775939 -1.258908,3.212342 -4.245741,5.687553 -7.705808,6.385861 -1.317815,0.26596 -3.52337,0.185099 -4.738409,-0.173721 -3.941223,-1.163907 -6.844597,-4.437534 -7.49134,-8.446675 l -0.146313,-0.906984 h -4.414707 -4.414706 v 0.36558 c 0,1.041483 -0.655703,3.003721 -1.451138,4.342636 -1.194722,2.011015 -4.044625,4.205308 -5.959051,4.588194 -0.205834,0.04117 -0.374242,0.120924 -0.374242,0.177241 0,0.234007 1.138399,2.676713 1.813031,3.890291 4.060176,7.303733 11.212444,12.550504 19.398314,14.230245 2.359916,0.484254 2.079509,0.58201 3.92834,-1.369498 l 1.591137,-1.679502 -0.656743,-0.745648 c -0.361209,-0.410105 -3.007312,-3.413311 -5.880229,-6.67379 l -5.223486,-5.928144 11.276679,-0.03055 c 6.202174,-0.01681 11.298602,-0.0086 11.325397,0.01816 0.0268,0.02679 0.12389,1.064497 0.215766,2.306004 0.09188,1.241505 0.193438,2.513271 0.225694,2.826146 l 0.05865,0.568862 H 50.59316 c -0.325208,0 -0.413519,-0.04819 -0.413519,-0.225653 0,-0.12411 -0.217745,-0.660696 -0.483878,-1.192413 -0.525625,-1.050166 -1.088176,-1.627336 -2.007138,-2.059299 -1.172193,-0.550997 -1.811782,-0.599083 -7.525328,-0.565786 l -5.349172,0.03118 4.445156,5.02994 4.445159,5.02994 -1.463452,1.497006 c -0.804899,0.823353 -1.948278,2.000059 -2.540843,2.614902 l -1.077391,1.117894 2.574851,-0.05345 c 2.037205,-0.04229 2.824917,-0.107418 3.772455,-0.311916 z M 29.695008,38.609511 c 0.49483,-3.067434 2.21418,-5.649528 4.859906,-7.298536 1.069754,-0.66675 2.870166,-1.31972 3.960874,-1.436525 l 0.765649,-0.08199 v -4.401758 -4.401757 l -0.628742,-0.08164 C 36.925504,20.683034 34.793846,19.772609 33.443592,18.68251 32.004079,17.52035 30.702525,15.65929 30.156257,13.982039 30.011451,13.537428 29.8438,13.173656 29.783698,13.173656 c -0.0601,0 -0.679648,0.248358 -1.37677,0.551905 -5.099739,2.220581 -9.481096,5.927117 -12.60362,10.6624 -1.2507,1.896676 -3.003849,5.478313 -2.78031,5.680098 0.04992,0.04507 0.44333,0.197057 0.874232,0.337754 2.379231,0.776858 4.794971,2.995988 5.925796,5.443512 0.436592,0.944945 0.893271,2.620381 0.894697,3.282415 l 8.4e-4,0.389221 h 4.414706 4.414707 z m 29.580839,0 c 0.483318,-2.996069 2.159379,-5.566086 4.676249,-7.170406 0.80607,-0.51381 1.964793,-1.061127 2.554582,-1.206643 0.186457,-0.046 0.363681,-0.147925 0.393831,-0.226492 0.07197,-0.187557 -0.641369,-1.848807 -1.457426,-3.394103 -2.259929,-4.279429 -5.654443,-7.971672 -9.81434,-10.675142 -2.056398,-1.33643 -5.341925,-2.928289 -5.558241,-2.693004 -0.05541,0.06026 -0.215854,0.462128 -0.356551,0.89303 -0.820232,2.512071 -3.266922,5.039442 -5.898763,6.093283 -0.501313,0.200735 -1.403137,0.457917 -2.004051,0.571516 l -1.092574,0.206542 v 4.406134 4.406133 l 0.329341,8.39e-4 c 0.181138,4.79e-4 0.777611,0.108304 1.325496,0.23965 3.906175,0.936442 7.008374,4.170188 7.754057,8.082863 0.112979,0.592815 0.223141,1.14521 0.244802,1.227545 0.0306,0.116297 1.011948,0.149701 4.397971,0.149701 h 4.358584 l 0.147033,-0.911447 z"
     style="fill:#ffffff;stroke-width:0.572587;stroke-linejoin:round" /></svg>
