<?xml version="1.0" encoding="UTF-8" standalone="no"?>
<svg
   xmlns:dc="http://purl.org/dc/elements/1.1/"
   xmlns:cc="http://creativecommons.org/ns#"
   xmlns:rdf="http://www.w3.org/1999/02/22-rdf-syntax-ns#"
   xmlns:svg="http://www.w3.org/2000/svg"
   xmlns="http://www.w3.org/2000/svg"
   xmlns:sodipodi="http://sodipodi.sourceforge.net/DTD/sodipodi-0.dtd"
   xmlns:inkscape="http://www.inkscape.org/namespaces/inkscape"
   sodipodi:docname="women_1.svg"
   inkscape:version="1.0 (4035a4fb49, 2020-05-01)"
   id="svg1413"
   version="1.1"
   viewBox="0 0 103.96786 104.55082"
   height="104.55082mm"
   width="103.96786mm">
  <defs
     id="defs1407">
    <clipPath
       clipPathUnits="userSpaceOnUse"
       id="clipPath1378">
      <circle
         style="fill:#804a3f;fill-opacity:1;fill-rule:evenodd;stroke-width:1.40254"
         id="circle1380"
         cx="165.47873"
         cy="66.220566"
         r="51.983921" />
    </clipPath>
    <clipPath
       clipPathUnits="userSpaceOnUse"
       id="clipPath1378-3">
      <circle
         style="fill:#804a3f;fill-opacity:1;fill-rule:evenodd;stroke-width:1.40254"
         id="circle1380-6"
         cx="165.47873"
         cy="66.220566"
         r="51.983921" />
    </clipPath>
  </defs>
  <sodipodi:namedview
     inkscape:window-maximized="1"
     inkscape:window-y="0"
     inkscape:window-x="0"
     inkscape:window-height="1006"
     inkscape:window-width="1920"
     fit-margin-bottom="0"
     fit-margin-right="0"
     fit-margin-left="0"
     fit-margin-top="0"
     showgrid="false"
     inkscape:document-rotation="0"
     inkscape:current-layer="layer1"
     inkscape:document-units="mm"
     inkscape:cy="227.04798"
     inkscape:cx="393.77271"
     inkscape:zoom="0.98994949"
     inkscape:pageshadow="2"
     inkscape:pageopacity="0.0"
     borderopacity="1.0"
     bordercolor="#666666"
     pagecolor="#ffffff"
     id="base"
     inkscape:snap-global="false" />
  <metadata
     id="metadata1410">
    <rdf:RDF>
      <cc:Work
         rdf:about="">
        <dc:format>image/svg+xml</dc:format>
        <dc:type
           rdf:resource="http://purl.org/dc/dcmitype/StillImage" />
        <dc:title />
      </cc:Work>
    </rdf:RDF>
  </metadata>
  <g
     transform="translate(-53.849415,-95.891254)"
     id="layer1"
     inkscape:groupmode="layer"
     inkscape:label="Warstwa 1">
    <rect
       style="fill:#089c9c;fill-rule:evenodd;stroke-width:1.37008"
       id="rect846"
       width="117.59859"
       height="111.98593"
       x="51.176723"
       y="95.623985" />
    <circle
       style="fill:#089c9c;fill-opacity:1;fill-rule:evenodd;stroke-width:1.40254"
       id="path1173-0"
       cx="105.83334"
       cy="147.87518"
       r="51.983929" />
    <path
       style="fill:#ffffff;fill-opacity:1;fill-rule:evenodd;stroke:none;stroke-width:1.88625"
       d="m 137.61462,191.35637 c -5.67737,0 -10.27959,4.65877 -10.27959,10.43045 0,0.86762 0.1134,1.75413 0.30155,2.56514 2.43318,11.16604 4.92289,29.42407 6.1678,38.00607 1.81065,-0.24524 14.88173,-2.56521 20.37047,-5.82822 -2.24455,-15.67393 -4.05527,-28.97138 -6.6016,-37.62887 h -0.0571 c -1.18822,-4.33815 -5.16807,-7.54457 -9.90232,-7.54457 z"
       id="path29-4" />
    <path
       style="fill:#fc461a;fill-opacity:1;fill-rule:evenodd;stroke:none;stroke-width:1.88625"
       d="m 104.46696,178.94251 c -19.050155,0 -40.74095,18.54091 -40.74095,18.54091 l 10.354947,52.20883 c 0,0 -3.206478,32.49845 -2.697162,38.53412 0.471226,5.22467 3.093254,5.60195 3.82884,5.60195 0.113403,0 0.188925,-0.0215 0.188925,-0.0215 v 9.43072 c 0,0 15.391047,3.64029 34.85619,3.64029 15.50419,0 32.70591,-3.45165 33.32834,-5.07374 l 0.13188,-7.73321 c 0,0 6.9788,-3.14986 8.41225,-10.88314 1.50897,-7.71438 -8.28022,-27.76418 -8.78946,-36.62914 -0.49048,-8.92156 -0.1134,-52.79349 -0.1134,-52.79349 0,0 -17.40925,-13.39175 -36.87439,-14.76861 -0.62238,-0.0356 -1.26371,-0.0571 -1.88616,-0.0571 z"
       id="path55-1" />
    <path
       id="path250"
       d="m 86.830604,134.35615 -0.159495,0.36438 c 0,0 0.159495,-0.11372 0.341834,-0.36438 z"
       style="fill:#f9ad8c;fill-opacity:1;fill-rule:evenodd;stroke:none;stroke-width:2.27906" />
    <path
       style="fill:#ffffff;fill-opacity:1;fill-rule:evenodd;stroke:none;stroke-width:1.88625"
       d="m 70.674898,194.07244 c -4.715367,0 -8.751745,3.20648 -10.015453,7.52574 -2.584027,8.65743 -7.582351,23.06772 -7.582351,37.42134 0,0 10.355022,6.05457 20.879776,6.05457 0.811019,0 1.603202,-0.0356 2.3954,-0.1134 0,0 2.018189,-26.74572 4.489007,-37.91175 h -0.07555 c 0.263778,-0.81108 0.377137,-1.69752 0.377137,-2.62175 0,-5.71508 -4.658829,-10.35502 -10.468231,-10.35502 z"
       id="path83-4" />
    <path
       id="path61"
       d="m 96.98301,158.55387 2.43769,23.26233 c 0.31326,3.37795 5.53698,5.69374 9.66361,5.69374 0.52254,0 1.02732,-0.0329 1.51486,-0.10469 3.53458,-0.57454 3.41269,-3.98737 3.53458,-7.31306 l 0.50478,-11.70076 0.17441,-0.80101 z"
       style="fill:#f9ad8c;fill-opacity:1;fill-rule:evenodd;stroke:none;stroke-width:1.74128" />
    <path
       id="path63"
       d="m 96.98301,158.55387 1.16658,11.03915 c 3.11674,4.73605 9.19352,6.21609 15.77528,6.21609 0.12174,0 0.2435,0 0.36591,0 l 0.34815,-7.31298 0.17439,-0.81838 z"
       style="fill:#804a3f;fill-opacity:1;fill-rule:evenodd;stroke:none;stroke-width:1.74128" />
    <path
       id="path242"
       d="m 109.11059,116.17387 c -12.23238,0 -24.7808,8.50768 -26.4735,18.07328 -2.79851,15.8913 5.73256,31.496 -2.16657,32.64214 0,0 2.14404,0.41903 4.5138,0.41903 2.23432,0 4.64921,-0.37487 5.57452,-1.89548 0,0 1.46696,5.44405 0,9.2791 0,0 0.22584,0.025 0.63207,0.025 1.55734,0 5.55202,-0.37487 7.35755,-4.0334 l 18.68723,0.74977 -6.63534,5.68647 c 0,0 0.42905,0.0665 1.19614,0.0665 2.88884,0 10.38176,-0.9257 16.2497,-9.85209 7.40267,-11.3068 5.25861,-27.59479 5.25861,-27.59479 0,0 1.87325,-11.63745 -12.43554,-20.38755 -3.58846,-2.20414 -7.67342,-3.17394 -11.75854,-3.17394 z"
       style="fill:#000000;fill-opacity:1;fill-rule:evenodd;stroke:none;stroke-width:2.23043" />
    <path
       id="path65"
       d="m 106.33322,119.82979 c -9.2457,0 -15.47918,3.90024 -19.72769,10.32522 -3.48239,5.17133 -2.03722,12.01423 -1.28846,14.52154 -2.03723,0.17441 -4.7535,1.39299 -4.12664,6.8429 0.94021,8.30552 6.98217,8.47965 8.77561,8.8453 0,0 3.01223,13.49422 19.22278,13.49422 0.76611,0 1.5496,-0.0198 2.38542,-0.0869 18.28252,-1.44517 15.27022,-15.56625 15.14834,-24.96872 -0.12175,-5.58916 0.2435,-13.6509 -1.96752,-19.46648 0,0 0,-0.0526 0,-0.0526 -0.99252,-2.55957 -2.50731,-4.71867 -4.77087,-6.04196 -2.43768,-1.74119 -5.85044,-2.90778 -10.96952,-3.30825 -0.92282,-0.0698 -1.81082,-0.10464 -2.68145,-0.10464 z"
       style="fill:#f9ad8c;fill-opacity:1;fill-rule:evenodd;stroke:none;stroke-width:1.74128" />
    <path
       sodipodi:nodetypes="ccccc"
       id="path38"
       d="m 84.49233,144.30621 c -5.03376,-24.10884 25.79494,-32.63838 40.53648,-17.43684 -7.07346,6.92875 -11.49637,13.42798 -27.93505,21.87439 -2.0529,1.03772 -4.13665,2.00151 -6.77186,1.6445 -2.04654,-7.20796 -3.91272,-5.37585 -5.82957,-6.08205"
       style="fill:#000000;stroke:#000000;stroke-width:0.291714px;stroke-linecap:butt;stroke-linejoin:miter;stroke-opacity:1" />
  </g>
</svg>
